<?xml version="1.0" encoding="utf-8"?>

<!DOCTYPE svg PUBLIC "-//W3C//DTD SVG 1.1//EN" "http://www.w3.org/Graphics/SVG/1.1/DTD/svg11.dtd">
<!-- Uploaded to: SVG Repo, www.svgrepo.com, Generator: SVG Repo Mixer Tools -->
<svg height="500px" width="500px" version="1.1" id="_x32_" xmlns="http://www.w3.org/2000/svg" xmlns:xlink="http://www.w3.org/1999/xlink" 
	 viewBox="0 0 512 512"  xml:space="preserve">
<style type="text/css">
	.st0{fill:#FFFF;}
</style>
<g>
	<path class="st0" d="M497.099,469.649l-8.976-64.607c-2.096-15.202-14.189-27.287-29.417-29.392l-7.624-1.056l-1.056-7.614
		c-2.052-15.15-14.128-27.278-29.374-29.4l-7.413-1.021l-4.191-32.928c-1.013-7.658-4.524-14.74-9.885-20.066l-47.886-47.894
		l51.562-51.562c9.658-9.648,9.658-25.296,0-34.954L260.911,7.228c-9.641-9.64-25.288-9.64-34.937,0.018L21.815,211.396
		c-9.649,9.648-9.649,25.287,0,34.936l141.928,141.919c9.648,9.658,25.296,9.658,34.936,0.018l53.326-53.335l166.97,166.979
		c7.842,7.832,19.018,11.43,29.933,9.632l19.532-3.144c7.222-1.169,13.744-4.506,18.887-9.648
		C494.924,491.147,498.575,480.276,497.099,469.649z M220.133,148.754l-56.783,56.792c-8.434,8.435-22.134,8.435-30.57,0
		c-8.452-8.452-8.444-22.136-0.009-30.561l56.784-56.792c8.435-8.435,22.126-8.435,30.562,0
		C228.569,126.645,228.569,140.319,220.133,148.754z M470.894,482.311c-1.615,1.615-3.728,2.75-6.138,3.143l-19.629,3.153
		c-3.554,0.585-7.168-0.586-9.71-3.135L268.438,318.5l66.405-66.396l47.938,47.954c1.763,1.755,2.881,4.034,3.205,6.506
		l5.352,42.078c0.637,5.03,4.575,8.994,9.588,9.693l16.52,2.27c4.96,0.69,8.88,4.593,9.553,9.579l3.475,25.025l0.009,0.009
		l25.052,3.466c4.968,0.682,8.872,4.584,9.561,9.553l8.976,64.607C474.58,476.452,473.296,479.909,470.894,482.311z"/>
</g>
</svg>